<?xml version="1.0" encoding="UTF-8"?>
<svg id="Capa_1" xmlns="http://www.w3.org/2000/svg" viewBox="0 0 1080 1080">
  <defs>
    <style>
      .cls-1 {
        stroke: #fff;
        stroke-miterlimit: 10;
        stroke-width: 15px;
      }

      .cls-1, .cls-2 {
        fill: #22c55e;
      }

      .cls-3 {
        fill: #fff;
      }
    </style>
  </defs>
  <circle class="cls-1" cx="540" cy="540" r="524.103"/>
  <g>
    <path class="cls-3" d="M510.611,788.606h-8.68c-73.835,0-147.675-.494-221.502.298-22.415.241-40.699-18.659-38.123-41.679,5.448-48.689,9.299-97.558,13.728-146.36,3.332-36.714,6.509-73.442,9.823-110.158,3.132-34.7,6.3-69.397,9.559-104.086,1.284-13.672,7.896-19.559,21.518-19.564,25.212-.011,50.425.115,75.635-.111,4.571-.041,6.125.912,5.981,5.796-.377,12.821-.307,25.664-.064,38.492.197,10.371,6.026,16.021,15.298,15.5,7.536-.423,12.748-5.758,12.971-14.372.338-13.049.379-26.119.01-39.165-.142-5.005,1.083-6.302,6.203-6.277,46.596.227,93.193.202,139.789.027,4.634-.017,6.125,1.024,5.99,5.863-.359,12.822-.187,25.661-.097,38.493.068,9.683,5.298,15.404,13.881,15.47,8.433.066,14.357-5.789,14.537-15.134.256-13.278.21-26.566-.022-39.845-.067-3.828,1.027-4.851,4.835-4.828,26.562.165,53.125.022,79.687.126,9.85.039,17.143,6.903,18.112,17.259,4.461,47.67,8.724,95.358,13.212,143.025.374,3.973-1.224,3.803-4.182,3.587-42.326-3.096-81.791,6.11-117.123,29.718-49.36,32.981-77.501,79.254-83.806,138.562-3.15,29.633,1.291,58.141,11.952,85.818.313.814.429,1.703.877,3.542Z"/>
    <path class="cls-3" d="M837.937,716.884c.105,85.019-68.868,154.054-154.208,154.347-85.623.294-154.655-68.565-154.678-154.288-.023-85.421,68.428-154.091,153.952-154.443,85.269-.352,154.829,68.961,154.935,154.384Z"/>
    <path class="cls-3" d="M587.207,332.625c0,9.229-.143,18.461.075,27.685.082,3.447-.781,4.772-4.443,4.595-6.063-.293-12.172-.396-18.221.018-5.152.352-6.964-1.029-6.85-6.585.337-16.422.385-32.87-.145-49.286-1.251-38.723-32.419-68.836-73.229-71.209-35.238-2.049-69.901,26.09-75.629,61.764-3.084,19.211-.98,38.625-1.185,57.941-.062,5.817-1.204,8.021-7.34,7.408-6.017-.6-12.141-.126-18.218-.137-2.031-.004-4.22.278-4.096-2.9.916-23.329-2.3-46.821,2.496-69.992,9.955-48.096,51.683-82.465,100.781-83.151,58.32-.814,105.826,45.91,106.001,104.263.02,6.528.003,13.056.004,19.583Z"/>
    <path class="cls-2" d="M664.047,772.503c-3.844.063-7.637-2.135-11.042-5.266-14.568-13.397-29.184-26.742-43.706-40.19-7.603-7.041-8.365-17.145-2.003-23.89,6.392-6.777,15.611-6.863,23.416.129,10.218,9.153,20.388,18.372,30.259,27.894,3.2,3.087,4.857,2.631,7.81-.231,21.642-20.979,43.474-41.762,65.229-62.625,3.267-3.133,6.58-6.142,11.327-6.76,7.219-.94,13.617,2.4,16.707,8.702,3.219,6.566,2.158,13.266-3.676,19.034-9.756,9.646-19.761,19.039-29.676,28.524-16.905,16.17-33.84,32.307-50.717,48.506-3.67,3.523-7.63,6.23-13.926,6.173Z"/>
  </g>
</svg>