<?xml version="1.0" encoding="UTF-8"?>
<svg id="Capa_2" data-name="Capa 2" xmlns="http://www.w3.org/2000/svg" viewBox="0 0 45.9 45.13">
  <defs>
    <style>
      .cls-1 {
        fill: #201d1d;
        stroke-width: 0px;
      }
    </style>
  </defs>
  <g id="Capa_4" data-name="Capa 4">
    <path class="cls-1" d="M45.9,1.07c.01-.1,0-.2-.01-.29,0,0,0-.01,0-.02-.02-.1-.06-.2-.11-.29,0,0,0,0,0,0,0,0,0,0,0,0-.02-.04-.05-.08-.08-.11,0,0,0-.01-.01-.02-.02-.03-.05-.05-.08-.08-.01-.01-.02-.02-.03-.03-.02-.01-.04-.03-.05-.04-.03-.02-.05-.04-.08-.05,0,0,0,0,0,0,0,0,0,0,0,0-.09-.05-.19-.09-.29-.11,0,0-.01,0-.02,0-.1-.02-.2-.02-.3,0,0,0-.01,0-.02,0-.04,0-.09.01-.13.03L.71,12.49c-.37.11-.65.42-.7.8-.05.38.14.75.47.95l19.5,11.32,11.64,19.11c.18.29.5.47.84.47.04,0,.09,0,.13,0,.39-.05.7-.32.81-.69L45.87,1.22s.02-.09.03-.13c0,0,0-.01,0-.02ZM41.57,2.91l-21.03,20.74L3.43,13.72,41.57,2.91ZM32.14,41.77l-10.22-16.77L42.96,4.26l-10.82,37.51Z"/>
  </g>
</svg>