<?xml version="1.0" encoding="UTF-8"?>
<svg id="Capa_2" data-name="Capa 2" xmlns="http://www.w3.org/2000/svg" viewBox="0 0 45.9 45.13">
  <defs>
    <style>
      .cls-1, .cls-2 {
        stroke-width: 0px;
      }

      .cls-2 {
        fill: #201d1d;
      }
    </style>
  </defs>
  <g id="Capa_4" data-name="Capa 4">
    <g>
      <path class="cls-2" d="M22.95,45.13C10.3,45.13,0,35.01,0,22.57S10.3,0,22.95,0s22.95,10.12,22.95,22.57-10.3,22.57-22.95,22.57ZM22.95,1.92C11.37,1.92,1.95,11.18,1.95,22.57s9.42,20.65,21,20.65,21-9.26,21-20.65S34.53,1.92,22.95,1.92Z"/>
      <path class="cls-2" d="M22.67,28.39c-.54,0-.98-.43-.98-.96v-3.1c0-.46.33-.86.8-.94.2-.04,4.89-.97,5.23-5.02-.01-2.5-1.12-4.06-3.31-4.64-2.88-.76-5.62.51-6.51,3.02-.18.5-.74.76-1.25.59-.51-.18-.78-.72-.6-1.22,1.23-3.43,5.04-5.25,8.87-4.23,3.06.81,4.75,3.13,4.75,6.53,0,.02,0,.05,0,.07-.31,3.96-3.72,5.93-6.03,6.61v2.35c0,.53-.44.96-.98.96Z"/>
      <ellipse class="cls-1" cx="22.84" cy="33.7" rx="2.2" ry="2.16"/>
    </g>
  </g>
</svg>