<?xml version="1.0" encoding="UTF-8"?>
<svg id="Capa_2" data-name="Capa 2" xmlns="http://www.w3.org/2000/svg" viewBox="0 0 58.99 58.99">
  <defs>
    <style>
      .cls-1 {
        fill: #e73d00;
        stroke-width: 0px;
      }
    </style>
  </defs>
  <g id="Capa_4" data-name="Capa 4">
    <g>
      <path class="cls-1" d="M29.5,58.99C13.19,58.95-.01,45.88,0,29.46.01,13.06,13.31-.18,29.83,0c16.02.17,29.18,13.08,29.16,29.52-.02,16.62-13.47,29.45-29.49,29.47ZM56.11,29.48c.02-14.57-11.79-26.53-26.38-26.62C14.9,2.77,3,14.5,2.85,29.37c-.15,14.71,11.95,26.75,26.64,26.76,14.68.01,26.61-11.94,26.62-26.65Z"/>
      <path class="cls-1" d="M32.36,39.81c0,2.64-.03,5.27.01,7.91.01.81-.27,1.05-1.05,1.04-2.11-.04-4.23-.01-6.34-.02-1.11,0-1.18-.06-1.18-1.18,0-5.1,0-10.19,0-15.29q0-1.3-1.31-1.3c-.84,0-1.68,0-2.52,0-.54,0-.78-.22-.77-.79.02-1.62.02-3.24,0-4.86,0-.62.27-.82.84-.81.93.02,1.86-.03,2.78.01.78.04,1.01-.29.99-1.02-.03-1.16,0-2.31.09-3.47.43-5.27,4.08-9.01,9.38-9.64,1.89-.22,3.75-.13,5.62.16.65.1.96.37.94,1.07-.04,1.68-.04,3.36,0,5.04.02.79-.25.84-.93.62-1.63-.52-3.29-.73-4.86.24-1.34.84-1.56,2.23-1.68,3.63-.07.86,0,1.74-.02,2.6-.02.58.24.76.78.76,1.42-.02,2.84,0,4.26,0q1.4,0,1.4,1.44c0,1.27,0,2.55,0,3.82,0,1.18,0,1.19-1.23,1.19-1.39,0-2.78.03-4.17-.01-.78-.03-1.07.21-1.05,1.03.05,2.61.02,5.21.02,7.82Z"/>
    </g>
  </g>
</svg>