<?xml version="1.0" encoding="UTF-8"?>
<svg id="Capa_2" data-name="Capa 2" xmlns="http://www.w3.org/2000/svg" viewBox="0 0 321.1 250.84">
  <defs>
    <style>
      .cls-1 {
        fill: #fbfbff;
      }

      .cls-1, .cls-2 {
        stroke-width: 0px;
      }

      .cls-2 {
        fill: #000100;
      }
    </style>
  </defs>
  <g id="Capa_4" data-name="Capa 4">
    <g>
      <g>
        <path class="cls-2" d="M242,50.15v10.44c0,4.23-2.91,7.78-6.81,8.78v12.06c1.36,1.28,2.24,3.09,2.28,5.11l.14,6.73s-.5,11.33-3.34,24.37c-3.02,13.87-9.55,33.34-23.46,47.38-12.25,12.36-28.19,18.62-47.38,18.62h-.03c-20.61,0-37.48-6.58-50.14-19.54-13.42-13.75-19.53-32.29-22.29-45.42-2.94-13.98-2.83-24.67-2.82-25.39l.16-6.95c.05-1.74.73-3.31,1.81-4.5v-13.62c-2.44-1.24-4.66-3.17-6.47-5.75-3.11-4.43-4.72-10.21-4.53-16.27.4-12.71,8.65-26.28,18.45-25.94,9.77.31,17.4,14.36,17,27.06-.19,6.07-2.16,11.74-5.54,15.95-2,2.49-4.36,4.3-6.91,5.37v12.63s0,.08-.01.12c1.36,1.25,2.25,3.03,2.29,5.01l.09,4c.08.21-1.49,37.38,18.64,58.68,9.71,10.26,22.96,15.47,39.4,15.47h.01c15.99,0,29.04-5.18,38.78-15.37,17.06-17.88,19.63-44.82,19.97-55.9l.03-4.27c0-.16,0-.26-.01-.27,0-.13,0-.25.03-.37l.06-1.88c.05-1.78.73-3.38,1.81-4.6v-12.44c-4.01-.92-7.01-4.53-7.01-8.83v-10.44c0-.12.01-.24.04-.35-.02-.11-.04-.23-.04-.35v-27.77c0-1.07.97-1.92,2.07-1.69.81.16,1.37.93,1.37,1.76v26.68h18.94v-26.72c0-.83.56-1.6,1.36-1.76,1.11-.22,2.08.62,2.08,1.69v28.52ZM238.56,60.59v-8.34h-18.94v8.34c0,3.09,2.5,5.6,5.57,5.6h7.79c3.07,0,5.57-2.51,5.57-5.6ZM234.17,93.26h-9.53c-.11,4.22-.54,9.08-1.95,16.89-2.18,12.08-7.24,29.05-18.95,41.33-10.39,10.89-24.25,16.42-41.2,16.42h-.01c-17.4,0-31.47-5.56-41.84-16.53-11.07-11.71-15.76-27.54-17.75-38.76-1.52-8.6-1.74-15.74-1.73-19.3h-2.49c-1.76,0-3.08.01-4.09.01-2,0-2.7-.02-2.99-.05h-.14s0,.01,0,.02c0,.11-.16,10.94,2.76,24.75,2.68,12.67,8.56,30.53,21.4,43.68,12,12.29,28.06,18.52,47.74,18.53h.02c18.27,0,33.41-5.93,45.01-17.62,13.33-13.44,19.63-32.24,22.56-45.65,2.75-12.57,3.14-21.01,3.19-23.73ZM234.1,89.89l-.07-3.28c-.04-2-1.62-3.62-3.53-3.62h-2.14c-1.92,0-3.47,1.57-3.53,3.59l-.1,3.3s.06,0,.09,0c.68.05,5.6.02,8.92-.02.13,0,.25.01.36.03ZM231.75,79.65v-10h-5.12v10.1c.55-.14,1.12-.23,1.72-.23h2.14c.43,0,.85.05,1.26.13ZM111.13,47.19c.34-10.8-5.8-23.25-13.67-23.5-.11,0-.22,0-.33,0-7.73,0-14.23,11.95-14.56,22.6-.17,5.32,1.22,10.35,3.9,14.17,2.53,3.6,5.91,5.66,9.55,5.85h.83c3.5-.1,6.86-1.91,9.5-5.22,2.92-3.64,4.61-8.57,4.78-13.89ZM101.02,89.84l-.07-3.38c-.04-1.92-1.62-3.48-3.53-3.48h-2.15c-1.92,0-3.47,1.51-3.53,3.44l-.1,3.4c.11,0,.22,0,.33.01.68.05,5.6.02,8.92-.01h.02s.07,0,.1.01ZM98.68,79.65v-9.89h-1.68c-.14,0-.29.03-.43.03-.15,0-.3,0-.45,0-.07,0-.13-.02-.2-.02h-2.36v9.99c.55-.14,1.13-.22,1.72-.22h2.15c.43,0,.85.05,1.25.12Z"/>
        <path class="cls-1" d="M238.56,52.25v8.34c0,3.09-2.5,5.6-5.57,5.6h-7.79c-3.07,0-5.57-2.51-5.57-5.6v-8.34h18.94Z"/>
        <path class="cls-2" d="M234.6,21.74v26.68h-3.44v-26.74c0-1.07.97-1.92,2.08-1.69.81.16,1.36.93,1.36,1.76Z"/>
        <path class="cls-1" d="M224.64,93.26h9.53c-.05,2.72-.44,11.16-3.19,23.73-2.93,13.41-9.22,32.21-22.56,45.65-11.6,11.69-26.74,17.62-45.01,17.62h-.02c-19.68,0-35.74-6.24-47.74-18.53-12.84-13.15-18.73-31.01-21.4-43.68-2.92-13.82-2.76-24.64-2.76-24.75,0,0,0-.01,0-.02h.14c.29.02,1,.05,2.99.05,1,0,2.33,0,4.09-.02h2.49c0,3.56.21,10.71,1.73,19.3,1.99,11.21,6.68,27.04,17.75,38.76,10.37,10.97,24.44,16.53,41.84,16.53h.01c16.95,0,30.81-5.53,41.2-16.42,11.71-12.28,16.77-29.25,18.95-41.33,1.41-7.81,1.84-12.67,1.95-16.89Z"/>
        <path class="cls-1" d="M234.03,86.61l.07,3.28c-.11-.02-.24-.03-.36-.03-3.32.04-8.24.06-8.92.02-.03,0-.06,0-.09,0l.1-3.3c.06-2.01,1.61-3.59,3.53-3.59h2.14c1.91,0,3.49,1.62,3.53,3.62Z"/>
        <path class="cls-1" d="M231.75,69.65v10c-.41-.08-.83-.13-1.26-.13h-2.14c-.59,0-1.17.08-1.72.23v-10.1h5.12Z"/>
        <path class="cls-2" d="M227.11,21.74v26.68h-3.44v-26.74c0-1.07.97-1.92,2.07-1.69.81.16,1.36.93,1.36,1.76Z"/>
        <path class="cls-1" d="M97.45,23.69c7.88.25,14.01,12.7,13.67,23.5-.17,5.32-1.87,10.26-4.78,13.89-2.65,3.3-6.01,5.12-9.5,5.22h-.83c-3.64-.19-7.02-2.25-9.55-5.85-2.68-3.81-4.07-8.85-3.9-14.17.33-10.65,6.83-22.6,14.56-22.6.11,0,.22,0,.33,0Z"/>
        <path class="cls-1" d="M100.95,86.47l.07,3.38s-.07-.01-.1-.01h-.02c-3.32.03-8.24.06-8.92.01-.11-.01-.23-.02-.33-.01l.1-3.4c.06-1.93,1.61-3.44,3.53-3.44h2.15c1.91,0,3.49,1.56,3.53,3.48Z"/>
        <path class="cls-1" d="M98.68,69.76v9.89c-.41-.08-.83-.12-1.25-.12h-2.15c-.59,0-1.17.08-1.72.22v-9.99h2.36c.07,0,.13.02.2.02.15,0,.3,0,.45,0s.29-.02.43-.03h1.68Z"/>
      </g>
      <g>
        <ellipse class="cls-2" cx="144.29" cy="37.68" rx="8.03" ry="37.68"/>
        <ellipse class="cls-2" cx="186.76" cy="37.68" rx="8.03" ry="37.68"/>
      </g>
      <g>
        <g>
          <path class="cls-1" d="M300.04,231.5l.2,8.9,11.7,10.08,8.8-9.87-11.7-10.08-9,.97ZM305.31,236.05c-.32.36-.88.39-1.25.08s-.41-.87-.09-1.23.88-.39,1.25-.08h0c.37.32.41.87.09,1.23h0s0,0,0,0Z"/>
          <path class="cls-2" d="M321.01,240.85l-8.8,9.87c-.13.15-.36.16-.51.03l-11.7-10.08c-.08-.07-.12-.16-.12-.26l-.2-8.9c0-.18.13-.34.32-.36l9-.97c.1-.01.2.02.28.09l11.7,10.08c.15.13.17.35.04.5ZM311.9,249.99l8.33-9.34-11.31-9.74-8.52.92.19,8.42,11.31,9.74ZM305.58,236.28c-.45.51-1.24.55-1.76.11s-.57-1.22-.12-1.73c.45-.51,1.24-.55,1.76-.11h0c.52.45.57,1.22.12,1.73h0ZM304.24,235.13c-.19.21-.17.54.05.73s.55.17.74-.05c.19-.21.17-.54-.05-.73h0c-.22-.19-.55-.17-.74.05h0Z"/>
          <path class="cls-2" d="M304.04,235.84c-.09.1-.23.14-.37.11-3.04-.85-6.9-2.06-7.98-2.99-1.67-1.43-1.86-3.91-.42-5.54,1.44-1.63,3.96-1.79,5.63-.37,0,0,.02.01.03.02.59.51,1.39,1.8,2.46,3.94.09.18,0,.39-.17.47-.18.08-.39,0-.48-.16-1.26-2.53-1.94-3.42-2.28-3.72-1.36-1.18-3.42-1.06-4.62.26-1.19,1.32-1.06,3.36.3,4.54,0,0,.02.01.02.02.75.65,3.56,1.68,7.7,2.84.19.05.3.25.25.44-.01.05-.04.1-.08.14h0Z"/>
          <g>
            <path class="cls-2" d="M308.57,241.88c-.7.78-1.91.86-2.71.16s-.89-1.88-.19-2.67c.7-.78,1.91-.86,2.71-.17.8.69.88,1.88.19,2.67ZM306.21,239.85c-.43.49-.38,1.23.12,1.66.5.43,1.26.38,1.69-.1.43-.49.38-1.23-.12-1.66-.5-.43-1.26-.38-1.69.1Z"/>
            <path class="cls-2" d="M315.18,241.47c-.7.78-1.91.86-2.71.17-.8-.69-.89-1.88-.19-2.67.7-.78,1.91-.86,2.71-.17h0c.8.69.88,1.88.19,2.67ZM312.82,239.44c-.44.49-.38,1.23.12,1.66.5.43,1.26.38,1.69-.1s.38-1.23-.12-1.66h0c-.5-.43-1.26-.38-1.69.1Z"/>
            <path class="cls-2" d="M311,244.99c-.13.15-.36.16-.51.03-.07-.06-.12-.15-.12-.24l-.61-8.66c-.02-.2.13-.37.33-.38s.37.13.39.33c0,0,0,0,0,0l.61,8.66c0,.09-.02.19-.09.26h0Z"/>
          </g>
        </g>
        <g>
          <path class="cls-2" d="M33.1,186.51v44.82h-8.38v-3.76c-2.2,2.83-5.43,4.22-9.5,4.22-8.6,0-15.22-6.51-15.22-16.69s6.62-16.69,15.22-16.69c3.73,0,8.98,3.92,8.98,3.92v-15.83h8.91ZM24.5,215.1c0-5.6-3.39-8.98-7.75-8.98s-7.81,3.37-7.81,8.98,3.39,8.98,7.81,8.98,7.75-3.37,7.75-8.98Z"/>
          <path class="cls-2" d="M64.49,221.13l4.7,5.42c-2.83,3.43-7.07,5.24-12.56,5.24-10.52,0-17.37-7.05-17.37-16.69s6.9-16.69,16.29-16.69c8.6,0,15.67,6.02,15.73,16.38l-22.52,4.64c1.3,3.19,4.13,4.82,8.09,4.82,3.22,0,5.54-1.02,7.64-3.13ZM47.91,214.14l14.82-3.07c-.85-3.31-3.51-5.54-7.18-5.54-4.41,0-7.47,3.13-7.64,8.61Z"/>
          <path class="cls-2" d="M95.79,229.59c-1.83,1.38-4.51,2.03-7.19,2.03-7.31,0-11.48-3.89-11.48-11.55v-31.77h8.91v11.33h7.6v7.21h-7.6v13.1c0,2.75,1.37,4.25,3.77,4.25,1.31,0,2.63-.42,3.65-1.2l2.34,6.58Z"/>
          <path class="cls-2" d="M101.36,191.82c0-2.12,1.59-3.77,3.94-3.77s3.94,1.56,3.94,3.64c0,2.25-1.59,3.9-3.94,3.9s-3.94-1.65-3.94-3.77ZM100.96,198.87h8.91v32.46h-8.91v-32.46Z"/>
          <path class="cls-2" d="M149.17,197.84v40.7h-8.91v-14.04c-2.17,2.45-5.34,3.62-9.08,3.62-8.6,0-15.22-6.01-15.22-15.41s6.62-15.41,15.22-15.41c4.07,0,9.6,3.89,9.6,3.89v-3.36h8.38ZM140.46,212.71c0-5.17-3.39-8.29-7.75-8.29s-7.81,3.11-7.81,8.29,3.39,8.29,7.81,8.29,7.75-3.11,7.75-8.29Z"/>
          <path class="cls-2" d="M188.21,198.87v32.46h-8.38v-3.86c-2.33,2.84-5.73,4.34-9.48,4.34-7.66,0-13.05-4.59-13.05-14.6v-18.34h8.91v16.93c0,5.42,2.25,7.83,6.13,7.83s6.97-2.77,6.97-8.73v-16.02h8.91Z"/>
          <path class="cls-2" d="M219.55,221.13l4.7,5.42c-2.83,3.43-7.07,5.24-12.56,5.24-10.52,0-17.37-7.05-17.37-16.69s6.9-16.69,16.29-16.69c8.6,0,15.67,6.02,15.73,16.38l-22.52,4.64c1.3,3.19,4.13,4.82,8.09,4.82,3.22,0,5.54-1.02,7.64-3.13ZM202.97,214.14l14.82-3.07c-.85-3.31-3.51-5.54-7.18-5.54-4.41,0-7.47,3.13-7.64,8.61Z"/>
          <path class="cls-2" d="M250.89,229.59c-1.83,1.38-4.51,2.03-7.19,2.03-7.31,0-11.48-3.89-11.48-11.55v-31.77h8.91v11.33h7.6v7.21h-7.6v13.1c0,2.75,1.37,4.25,3.77,4.25,1.31,0,2.63-.42,3.65-1.2l2.34,6.58Z"/>
          <path class="cls-2" d="M285.93,198.61v32.46h-8.38v-3.76c-2.22,2.83-5.45,4.22-9.52,4.22-8.6,0-15.22-6.51-15.22-16.69s6.62-16.69,15.22-16.69c3.73,0,9,3.92,9,3.92v-3.46h8.91ZM277.3,214.85c0-5.6-3.39-8.98-7.75-8.98s-7.81,3.37-7.81,8.98,3.39,8.98,7.81,8.98,7.75-3.37,7.75-8.98Z"/>
          <path class="cls-2" d="M288.82,225.86c0-3.23,2.43-5.34,5.49-5.34s5.49,2.11,5.49,5.34-2.43,5.45-5.49,5.45-5.49-2.28-5.49-5.45Z"/>
        </g>
      </g>
    </g>
  </g>
</svg>