<?xml version="1.0" encoding="UTF-8"?>
<svg id="Capa_2" data-name="Capa 2" xmlns="http://www.w3.org/2000/svg" viewBox="0 0 59 58.99">
  <defs>
    <style>
      .cls-1 {
        fill: #e73d00;
        stroke-width: 0px;
      }
    </style>
  </defs>
  <g id="Capa_4" data-name="Capa 4">
    <g>
      <path class="cls-1" d="M29.53,0c16.2.05,29.45,13.03,29.47,29.48.02,16.42-13.3,29.7-29.86,29.51C13.33,58.81.1,46.14,0,29.7-.1,12.93,13.4.02,29.53,0ZM2.89,29.47c-.04,14.68,11.89,26.64,26.51,26.66,14.78.03,26.74-11.72,26.73-26.64-.01-14.93-11.93-26.56-26.57-26.62-14.66-.06-26.68,11.87-26.66,26.6Z"/>
      <path class="cls-1" d="M45.53,29.51c0,2.2,0,4.4,0,6.6-.01,3.99-1.87,6.84-5.4,8.6-1.23.61-2.58.86-3.95.87-4.4.02-8.81.03-13.21.01-5.49-.02-9.53-4.1-9.53-9.59,0-4.34,0-8.69,0-13.03,0-5.47,4.07-9.55,9.56-9.57,4.37-.02,8.75-.02,13.12,0,5.35.02,9.4,4.09,9.41,9.42,0,2.23,0,4.46,0,6.69ZM42.17,29.54c0-2.26,0-4.52,0-6.78,0-3.4-2.37-5.92-5.78-5.97-4.61-.07-9.21-.07-13.82,0-3.35.05-5.75,2.59-5.76,5.93-.01,4.52-.02,9.04,0,13.56.01,3.35,2.42,5.88,5.76,5.93,4.61.07,9.21.03,13.82.02,3.34-.01,5.97-2.95,5.8-6-.12-2.22-.02-4.46-.02-6.69Z"/>
      <path class="cls-1" d="M21.08,29.51c0-4.75,3.75-8.5,8.49-8.48,4.63.01,8.39,3.85,8.38,8.54,0,4.59-3.84,8.4-8.44,8.4-4.68,0-8.44-3.77-8.44-8.46ZM29.51,24.38c-2.91,0-5.12,2.16-5.17,5.07-.05,2.89,2.22,5.17,5.15,5.17,2.91,0,5.13-2.17,5.16-5.07.03-2.93-2.2-5.16-5.15-5.17Z"/>
      <path class="cls-1" d="M37.81,18.78c1.24,0,2.38,1.13,2.39,2.38,0,1.31-1.06,2.38-2.36,2.38-1.35,0-2.33-.99-2.34-2.36,0-1.34,1.01-2.39,2.31-2.4Z"/>
    </g>
  </g>
</svg>