<?xml version="1.0" encoding="UTF-8"?>
<svg id="Capa_2" data-name="Capa 2" xmlns="http://www.w3.org/2000/svg" viewBox="0 0 42.34 35.87">
  <defs>
    <style>
      .cls-1 {
        stroke-width: 0px;
      }
    </style>
  </defs>
  <g id="Capa_4" data-name="Capa 4">
    <path class="cls-1" d="M38.36,0H3.98C1.79,0,0,1.76,0,3.93v28.01c0,2.17,1.79,3.93,3.98,3.93h34.37c2.2,0,3.98-1.76,3.98-3.93V3.93c0-2.17-1.79-3.93-3.98-3.93ZM3.98,1.77h34.37c1.2,0,2.18.97,2.18,2.16v2.25l-19.08,11.37L1.8,5.88v-1.94c0-1.19.98-2.16,2.18-2.16ZM38.36,34.1H3.98c-1.2,0-2.18-.97-2.18-2.16V7.94l19.19,11.4c.14.09.3.13.47.13s.32-.04.47-.13l18.61-11.09v23.68c0,1.19-.98,2.16-2.18,2.16Z"/>
  </g>
</svg>