<?xml version="1.0" encoding="UTF-8"?>
<svg id="Capa_2" data-name="Capa 2" xmlns="http://www.w3.org/2000/svg" viewBox="0 0 45.9 38.88">
  <defs>
    <style>
      .cls-1 {
        stroke-width: 0px;
      }
    </style>
  </defs>
  <g id="Capa_4" data-name="Capa 4">
    <path class="cls-1" d="M22.95,38.88c-.24,0-.49-.09-.68-.27L3.9,21.19C1.39,18.8,0,15.63,0,12.25c0-3.38,1.38-6.56,3.9-8.95,4.64-4.4,12.19-4.4,16.83,0l2.22,2.11,2.22-2.11c4.64-4.4,12.19-4.4,16.83,0t0,0c2.52,2.39,3.9,5.57,3.9,8.95,0,3.38-1.39,6.56-3.9,8.94l-18.37,17.42c-.19.18-.43.27-.68.27ZM12.32,1.91c-2.56,0-5.11.92-7.06,2.77-2.13,2.02-3.3,4.71-3.3,7.57,0,2.85,1.17,5.54,3.3,7.56l17.69,16.78,17.69-16.78c2.13-2.02,3.3-4.71,3.3-7.56,0-2.86-1.17-5.54-3.3-7.57h0c-3.89-3.69-10.22-3.69-14.12,0l-2.9,2.75c-.38.36-.98.36-1.36,0l-2.9-2.75c-1.94-1.84-4.5-2.77-7.06-2.77Z"/>
  </g>
</svg>