<?xml version="1.0" encoding="UTF-8"?>
<svg id="Capa_2" data-name="Capa 2" xmlns="http://www.w3.org/2000/svg" viewBox="0 0 47.94 46.94">
  <defs>
    <style>
      .cls-1 {
        stroke-width: 0px;
      }
    </style>
  </defs>
  <g id="Capa_4" data-name="Capa 4">
    <g>
      <path class="cls-1" d="M2.64,46.94c.35-1.8.67-3.48,1.02-5.16.33-1.6.74-3.19,1.04-4.8.07-.37,0-.89-.21-1.19C-3.47,25.01-.57,10.63,10.99,3.58,21.44-2.79,35.49-.45,43.04,8.9c8.9,11.03,5.26,27.09-7.67,33.54-7.24,3.61-14.62,3.66-22.01.39-.5-.22-.91-.25-1.41-.03-2.9,1.31-5.81,2.6-8.72,3.9-.15.07-.3.12-.59.24ZM4.01,45.11c.41-.16.64-.25.87-.35,2.29-.99,4.59-1.95,6.85-2.98.71-.32,1.26-.27,1.94.06,8.53,4.1,18.91,2.68,25.99-3.55,8.09-7.12,9.6-18.82,3.54-27.43C36.28,1.07,22.7-1.89,12.16,4.1.58,10.69-2.51,25.06,5.48,35.31c.4.51.49.95.35,1.56-.61,2.69-1.19,5.38-1.81,8.25Z"/>
      <path class="cls-1" d="M30,34.7c-2.75-.16-5.5-1.16-7.97-2.81-4.15-2.78-7.55-6.26-9.7-10.8-1.64-3.47-1.31-6.79.84-9.95,1.07-1.57,2.71-2.09,4.54-2.14.71-.02,1.28.24,1.66.89.84,1.44,1.76,2.85,2.54,4.32.78,1.46.49,2.41-.86,3.39-.22.16-.47.29-.72.41-1.61.76-2.16,2.42-.96,3.72,1.76,1.91,3.72,3.65,5.65,5.42.64.59,1.5.67,2.36.54.85-.13,1.38-.54,1.56-1.45.36-1.8,1.68-2.64,3.43-2.05,1.68.56,3.31,1.28,4.9,2.04,1.14.55,1.64,2.59.87,3.98-.55,1-1.36,1.95-2.26,2.65-1.6,1.25-3.53,1.8-5.86,1.84ZM12.2,16.85c.26,1.03.42,2.08.79,3.07.89,2.39,2.34,4.46,4.07,6.33,2.86,3.08,6.05,5.7,10.22,6.94,2.69.8,5.21.57,7.6-.88,1.11-.67,2.04-1.52,2.42-2.81.31-1.05-.01-2.15-.82-2.52-1.41-.64-2.83-1.25-4.29-1.77-1.26-.45-2,.03-2.29,1.33-.28,1.27-.93,1.93-2.2,2.13-1.16.18-2.27.06-3.27-.63-2.32-1.6-4.26-3.6-5.99-5.77-1.48-1.86-.79-4.15,1.35-5.16.25-.12.5-.25.71-.42.86-.69.98-1.08.46-2.04-.75-1.37-1.6-2.68-2.37-4.04-.31-.54-.75-.67-1.32-.6-1.61.2-2.88.89-3.68,2.34-.77,1.4-1.22,2.86-1.39,4.49Z"/>
    </g>
  </g>
</svg>