<?xml version="1.0" encoding="UTF-8"?>
<svg id="Capa_1" xmlns="http://www.w3.org/2000/svg" viewBox="0 0 1080 1080">
  <defs>
    <style>
      .cls-1 {
        stroke: #1d1d1b;
        stroke-miterlimit: 10;
        stroke-width: 15px;
      }

      .cls-1, .cls-2 {
        fill: #fff;
      }

      .cls-3 {
        fill: #010101;
      }
    </style>
  </defs>
  <circle class="cls-1" cx="540" cy="540" r="524.103"/>
  <g>
    <path class="cls-3" d="M474.096,883.278c-3.705-.391-7.444-.595-11.108-1.261-78.348-14.239-131.735-59.08-162.518-131.717-19.968-47.117-27.792-96.442-23.658-147.362,4.406-54.27,21.874-104.018,54.371-148.141,3.555-4.827,7.285-7.887,13.445-5.073,6.239,2.85,5.547,8.156,4.138,13.224-5.908,21.256-9.151,42.82-7.771,64.913.687,11.001,3.024,21.677,8.674,31.306,7.668,13.07,18.88,20.186,34.358,18.629,14.231-1.432,22.926-10.593,27.989-23.014,6.107-14.983,3.863-30.04-.887-45.16-13.479-42.905-10.385-83.755,16.896-120.976,10.609-14.475,24.549-25.27,40.165-33.99,15.783-8.813,29.687-19.909,40.897-34.216,18.578-23.711,18.172-46.616-1.3-69.789-1.872-2.228-3.672-4.375-4.576-7.295-1.329-4.292.414-7.454,3.17-10.27,2.693-2.751,5.842-2.709,9.223-1.064,33.586,16.347,59.435,39.531,67.793,77.749,3.673,16.795,1.143,33.27-4.006,49.51-7.28,22.96-11.731,46.326-8.636,70.574,3.154,24.711,12.448,46.061,33.949,60.396,22.579,15.054,47.122,8.882,60.19-14.95,6.132-11.184,8.782-23.352,9.438-35.938.864-16.594-.183-33.074-3.716-49.374-.695-3.204-1.388-6.664.207-9.89,3.447-6.971,11.703-6.934,16.813.324,10.804,15.346,20.811,31.21,30.069,47.541,24.236,42.75,42.563,87.706,51.404,136.287,21.172,116.341-28.418,229.363-130.203,284.764-15.283,8.319-30.923,16.334-47.254,21.811-19.941,6.688-40.575,11.953-61.837,13.463-1.567.111-52.08-.63-55.72-1.014Z"/>
    <path class="cls-3" d="M775.452,335.851c.66,3.094-1.476,6.049-4.476,8.132-3.172,2.202-6.656,1.674-10.023-.288-10.596-6.175-21.366-12.059-31.827-18.452-3.802-2.323-6.566-2.066-10.204.243-9.22,5.852-18.71,11.28-28.112,16.843-4.404,2.606-9.303,4.612-13.789,1.191-4.557-3.476-4.49-8.556-3.141-14.037,2.765-11.238,4.735-22.671,7.438-33.926.75-3.12.101-4.863-2.137-6.869-8.998-8.067-17.835-16.312-26.759-24.462-3.067-2.8-5.838-5.639-4.283-10.358,1.568-4.758,3.904-7.968,9.688-8.523,11.987-1.15,23.869-3.41,35.859-4.498,4.215-.383,5.655-2.39,7.101-5.582,4.498-9.929,9.222-19.756,13.714-29.688,2.059-4.552,4.719-8.311,10.232-8.149,5.311.157,8.219,3.531,10.243,8.236,4.485,10.427,9.381,20.677,13.85,31.111,1.461,3.411,3.107,4.975,7.199,5.241,11.806.769,23.546,2.517,35.345,3.472,4.584.371,7.582,2.128,9.227,6.331,1.732,4.425-.207,7.86-3.156,10.848-8.49,8.603-17.017,17.172-25.649,25.631-2.229,2.185-3.131,4.055-2.509,7.502,2.338,12.948,4.061,26.006,6.169,40.052Z"/>
    <path class="cls-3" d="M357.367,210.786c5.241.286,8.462,3.158,10.528,7.884,4.638,10.613,9.533,21.113,14.13,31.743,1.342,3.103,2.79,4.709,6.625,5.099,11.989,1.219,23.906,3.151,35.845,4.857,4.475.639,8.091,2.478,9.435,7.265,1.294,4.613-1.21,7.729-4.236,10.521-8.724,8.047-17.492,16.049-26.322,23.979-2.164,1.944-2.961,3.644-2.256,6.864,2.668,12.194,4.688,24.528,7.119,36.776.829,4.177,1.194,8.537-2.542,10.997-3.777,2.487-8.045,2.59-12.579-.043-10.403-6.039-21.26-11.292-31.743-17.199-3.178-1.791-5.513-1.601-8.523.138-9.65,5.576-19.452,10.888-29.196,16.301-3.175,1.764-6.49,3.201-10.201,2.424-5.368-1.123-7.156-4.579-6.292-9.885,2.081-12.779,3.801-25.621,6.146-38.349.596-3.235-.357-4.904-2.392-6.905-8.463-8.325-16.826-16.752-25.187-25.18-3.082-3.108-5.553-6.426-3.87-11.279,1.613-4.654,5.06-6.261,9.63-6.923,11.926-1.726,23.791-3.879,35.725-5.541,3.316-.462,4.897-1.871,6.211-4.839,4.777-10.788,9.905-21.42,14.826-32.145,1.816-3.956,4.285-6.818,9.12-6.562Z"/>
    <path class="cls-3" d="M623.983,835.869c17.776-24.957,34.366-50.063,45.767-78.231,8.629-21.318,14.289-43.374,12.478-66.538-2.487-31.811-16.829-57.031-45.589-71.848-27.304-14.066-55.019-13.148-81.679,2.864-6.57,3.946-11.991,9.325-16.861,15.238-4.69,5.694-8.731,11.834-12.74,18.946-3.779-5.146-7.277-9.874-10.74-14.628-35.205-48.336-111.438-40.855-139.035,15.997-13.627,28.072-10.698,56.48-1.696,84.784,10.498,33.009,29.374,61.449,50.4,88.553,6.966,8.98,14.226,17.733,22.065,27.476-26.819-7.12-50.067-18.83-70.738-35.623-34.927-28.374-55.708-65.655-68.015-108.274-10.267-35.557-14.441-71.845-12.099-108.722,1.948-30.679,8.644-60.412,20.856-88.763.529-1.227,1.194-2.408,1.599-3.673.398-1.243.215-2.722,2.355-3.776.868,9.309.154,18.485,1.855,27.491,4.651,24.633,14.563,45.687,39.043,56.272,29.612,12.804,63.221-5.807,71.132-38.819,4.488-18.728,1.381-36.821-4.313-54.665-11.398-35.716-7.98-69.195,14.961-99.639,9.422-12.503,21.783-21.713,35.188-29.641,19.616-11.601,37.596-25.174,50.235-44.585,10.314-15.84,15.854-32.893,11.43-52.058-.173-.75-.022-1.576-.022-3.728,14.7,14.684,23.742,30.817,25.632,50.463,1.168,12.149-.91,23.891-4.745,35.563-10.961,33.359-14.745,67.14-3.155,101.214,7.032,20.674,18.978,37.87,37.665,49.777,31.417,20.02,68.024,10.378,85.677-22.488,7.749-14.426,11.013-30.061,12.113-46.224.288-4.233.043-8.502.043-12.914,2.5.161,2.647,2.257,3.417,3.554,25.427,42.858,44.717,88.131,54.011,137.347,20.73,109.775-25.247,211.31-120.188,266.007-2.053,1.183-4.202,2.198-6.306,3.291Z"/>
    <path class="cls-2" d="M519.156,875.765c-4.109-.43-9.313-1.353-15.09-3.349-5.192-1.794-9.461-3.977-12.761-5.958,0,0-16.534-4.816-27.05-17.821-21.239-26.264-43.135-51.906-59.023-81.989-10.194-19.302-17.471-39.459-19.502-61.359-3.383-36.479,20.775-72.294,59.315-76.02,21.405-2.07,39.581,4.875,53.206,22.154,6.104,7.741,11.308,16.062,15.905,24.756,2.766,5.23,5.296,10.774,12.439,10.381,6.494-.357,8.36-5.799,10.661-10.664,4.015-8.487,8.56-16.682,14.323-24.128,26.46-34.19,79.819-29.282,102.122,9.417,12.732,22.092,11.479,45.293,5.018,68.782-9.477,34.45-28.69,63.629-50.113,91.539-5.396,7.03-10.248,13.107-20.291,25.009-9.419,11.162-19.978,20.091-19.978,20.092,0,0-7.596,3.829-13.897,5.869-5.197,1.682-9.979,2.028-19.542,2.721-4.091.296-9.438.567-15.741.569Z"/>
    <path class="cls-2" d="M770.707,262.161c-6.402,6.327-11.927,11.789-17.453,17.248-4.311,4.258-5.851,9.151-4.368,15.229,1.667,6.834,2.764,13.807,4.338,21.89-8.281-4.613-15.479-8.526-22.577-12.614-4.076-2.348-7.842-2.329-11.939.08-7.056,4.149-14.287,8.001-22.508,12.569,1.605-8.151,2.549-15.221,4.464-22.018,1.808-6.419.293-11.076-4.589-15.431-5.665-5.053-10.868-10.624-17.162-16.85,8.964-1.052,16.951-2.357,24.986-2.806,5.559-.311,8.546-3.1,10.582-7.728,2.951-6.711,5.922-13.413,9.51-21.535,3.734,7.35,7.205,13.6,10.123,20.098,2.624,5.844,6.248,9.214,13.113,9.403,7.348.201,14.666,1.488,23.48,2.466Z"/>
    <path class="cls-2" d="M329.215,331.402c1.354-9.744,2.181-18.186,3.813-26.469.918-4.657-.68-7.753-3.696-10.725-5.543-5.462-11.061-10.951-17.393-17.226,9.295-1.52,17.487-3.21,25.766-4.088,5.283-.56,7.974-3.448,9.821-7.8,3.023-7.122,5.982-14.271,9.548-22.795,3.881,8.026,7.496,14.748,10.408,21.761,2.402,5.786,6.113,8.856,12.411,9.463,7.548.727,15.041,2.031,23.758,3.253-6.45,6.058-12.035,11.727-18.082,16.851-4.819,4.084-6.623,8.351-4.67,14.672,2.154,6.97,3.356,14.234,5.323,22.913-7.641-4.234-14.185-7.637-20.497-11.426-5.333-3.202-10.281-3.337-15.661-.075-6.448,3.91-13.15,7.401-20.849,11.69Z"/>
  </g>
</svg>